# MagicaVoxel @ Ephtracy

# group
o 

# material
mtllib xyzCubeMesh.mtl
usemtl palette

# normals
vn -1 0 0
vn 1 0 0
vn 0 0 1
vn 0 0 -1
vn 0 -1 0
vn 0 1 0

# texcoords
vt 0.388672 0.5
vt 0.544922 0.5
vt 0.841797 0.5
vt 0.994141 0.5

# verts
v -0.1 0 0.1
v -0.1 0 -0.1
v -0.1 0 -0.2
v -0.1 0.1 0.1
v -0.1 0.1 -0.1
v -0.1 0.1 -0.2
v -0.1 0.3 -0.1
v -0.1 0.3 -0.2
v 0 0 0.1
v 0 0 -0.1
v 0 0.1 0.1
v 0 0.1 -0.1
v 0 0.1 -0.2
v 0 0.3 -0.1
v 0 0.3 -0.2
v 0.2 0 -0.1
v 0.2 0 -0.2
v 0.2 0.1 -0.1
v 0.2 0.1 -0.2
v -0.1 0 0.1
v -0.1 0.1 0.1
v 0 0 0.1
v 0 0.1 0.1
v -0.1 0.1 -0.1
v -0.1 0.3 -0.1
v 0 0 -0.1
v 0 0.1 -0.1
v 0 0.3 -0.1
v 0.2 0 -0.1
v 0.2 0.1 -0.1
v -0.1 0 -0.2
v -0.1 0.1 -0.2
v -0.1 0.3 -0.2
v 0 0 -0.2
v 0 0.1 -0.2
v 0 0.3 -0.2
v 0.2 0 -0.2
v 0.2 0.1 -0.2
v -0.1 0 0.1
v 0 0 0.1
v -0.1 0 -0.1
v 0 0 -0.1
v 0.2 0 -0.1
v -0.1 0 -0.2
v 0 0 -0.2
v 0.2 0 -0.2
v -0.1 0.1 0.1
v 0 0.1 0.1
v -0.1 0.1 -0.1
v 0 0.1 -0.1
v 0.2 0.1 -0.1
v 0 0.1 -0.2
v 0.2 0.1 -0.2
v -0.1 0.3 -0.1
v 0 0.3 -0.1
v -0.1 0.3 -0.2
v 0 0.3 -0.2

# faces
f 4/3/1 2/3/1 1/3/1
f 5/4/1 3/4/1 2/4/1
f 5/3/1 2/3/1 4/3/1
f 6/4/1 3/4/1 5/4/1
f 7/1/1 6/1/1 5/1/1
f 8/1/1 6/1/1 7/1/1
f 9/3/2 10/3/2 11/3/2
f 11/3/2 10/3/2 12/3/2
f 12/1/2 13/1/2 14/1/2
f 14/1/2 13/1/2 15/1/2
f 16/2/2 17/2/2 18/2/2
f 18/2/2 17/2/2 19/2/2
f 22/3/3 21/3/3 20/3/3
f 23/3/3 21/3/3 22/3/3
f 27/1/3 25/1/3 24/1/3
f 28/1/3 25/1/3 27/1/3
f 29/2/3 27/2/3 26/2/3
f 30/2/3 27/2/3 29/2/3
f 31/4/4 32/4/4 34/4/4
f 32/1/4 33/1/4 35/1/4
f 34/4/4 32/4/4 35/4/4
f 35/1/4 33/1/4 36/1/4
f 34/2/4 35/2/4 37/2/4
f 37/2/4 35/2/4 38/2/4
f 41/3/5 40/3/5 39/3/5
f 42/3/5 40/3/5 41/3/5
f 44/4/5 42/4/5 41/4/5
f 45/2/5 43/2/5 42/2/5
f 45/4/5 42/4/5 44/4/5
f 46/2/5 43/2/5 45/2/5
f 47/3/6 48/3/6 49/3/6
f 49/3/6 48/3/6 50/3/6
f 50/2/6 51/2/6 52/2/6
f 52/2/6 51/2/6 53/2/6
f 54/1/6 55/1/6 56/1/6
f 56/1/6 55/1/6 57/1/6
